<svg width="360" height="216" viewBox="0 0 360 216" fill="none" xmlns="http://www.w3.org/2000/svg">
<g clip-path="url(#clip0)">
<g filter="url(#filter0_dd)">
<path fill-rule="evenodd" clip-rule="evenodd" d="M0 0V224H360V0H0Z" fill="black" fill-opacity="0.01"/>
</g>
<g filter="url(#filter1_ddi)">
<path fill-rule="evenodd" clip-rule="evenodd" d="M0 1V225H360V1H0Z" fill="#ECEFF0"/>
</g>
<rect opacity="0.6" x="226" y="208" width="28" height="1.5" fill="#37474F"/>
<path d="M223.781 194.399H219.468V197.927H224.479V199H218.155V189.047H224.41V190.127H219.468V193.326H223.781V194.399ZM227.11 191.604L227.151 192.533C227.716 191.822 228.455 191.467 229.366 191.467C230.929 191.467 231.718 192.349 231.731 194.112V199H230.467V194.105C230.462 193.572 230.339 193.178 230.098 192.923C229.861 192.668 229.489 192.54 228.983 192.54C228.573 192.54 228.213 192.649 227.903 192.868C227.593 193.087 227.352 193.374 227.179 193.729V199H225.914V191.604H227.11ZM233.338 195.24C233.338 194.087 233.604 193.171 234.138 192.492C234.671 191.809 235.377 191.467 236.257 191.467C237.159 191.467 237.863 191.786 238.369 192.424L238.431 191.604H239.586V198.822C239.586 199.779 239.301 200.534 238.731 201.085C238.166 201.636 237.405 201.912 236.448 201.912C235.915 201.912 235.393 201.798 234.883 201.57C234.372 201.342 233.983 201.03 233.714 200.634L234.37 199.875C234.912 200.545 235.576 200.88 236.359 200.88C236.975 200.88 237.453 200.707 237.795 200.36C238.141 200.014 238.314 199.526 238.314 198.897V198.262C237.809 198.845 237.118 199.137 236.243 199.137C235.377 199.137 234.675 198.788 234.138 198.091C233.604 197.394 233.338 196.443 233.338 195.24ZM234.609 195.384C234.609 196.218 234.78 196.874 235.122 197.353C235.464 197.826 235.942 198.063 236.558 198.063C237.355 198.063 237.941 197.701 238.314 196.977V193.6C237.927 192.893 237.346 192.54 236.571 192.54C235.956 192.54 235.475 192.779 235.129 193.258C234.783 193.736 234.609 194.445 234.609 195.384ZM242.874 199H241.609V188.5H242.874V199ZM246.278 199H245.014V191.604H246.278V199ZM244.911 189.642C244.911 189.437 244.973 189.263 245.096 189.122C245.223 188.981 245.41 188.91 245.656 188.91C245.902 188.91 246.089 188.981 246.217 189.122C246.344 189.263 246.408 189.437 246.408 189.642C246.408 189.847 246.344 190.018 246.217 190.154C246.089 190.291 245.902 190.359 245.656 190.359C245.41 190.359 245.223 190.291 245.096 190.154C244.973 190.018 244.911 189.847 244.911 189.642ZM252.615 197.038C252.615 196.696 252.485 196.432 252.226 196.245C251.97 196.054 251.521 195.89 250.879 195.753C250.241 195.616 249.733 195.452 249.354 195.261C248.981 195.069 248.703 194.841 248.521 194.577C248.343 194.313 248.254 193.998 248.254 193.634C248.254 193.028 248.509 192.515 249.02 192.096C249.535 191.676 250.191 191.467 250.988 191.467C251.827 191.467 252.506 191.683 253.025 192.116C253.549 192.549 253.812 193.103 253.812 193.777H252.54C252.54 193.431 252.392 193.132 252.096 192.882C251.804 192.631 251.435 192.506 250.988 192.506C250.528 192.506 250.168 192.606 249.908 192.807C249.648 193.007 249.519 193.269 249.519 193.593C249.519 193.898 249.639 194.128 249.881 194.283C250.122 194.438 250.558 194.586 251.187 194.728C251.82 194.869 252.333 195.037 252.725 195.233C253.117 195.429 253.406 195.666 253.593 195.944C253.784 196.218 253.88 196.553 253.88 196.949C253.88 197.61 253.616 198.141 253.087 198.542C252.558 198.938 251.872 199.137 251.029 199.137C250.437 199.137 249.913 199.032 249.457 198.822C249.001 198.613 248.644 198.321 248.384 197.947C248.129 197.569 248.001 197.161 248.001 196.724H249.266C249.288 197.147 249.457 197.485 249.771 197.735C250.09 197.981 250.51 198.104 251.029 198.104C251.508 198.104 251.891 198.009 252.178 197.817C252.469 197.621 252.615 197.362 252.615 197.038ZM256.792 192.499C257.353 191.811 258.082 191.467 258.979 191.467C260.543 191.467 261.331 192.349 261.345 194.112V199H260.08V194.105C260.076 193.572 259.952 193.178 259.711 192.923C259.474 192.668 259.103 192.54 258.597 192.54C258.187 192.54 257.826 192.649 257.517 192.868C257.207 193.087 256.965 193.374 256.792 193.729V199H255.527V188.5H256.792V192.499Z" fill="black" fill-opacity="0.26"/>
<path fill-rule="evenodd" clip-rule="evenodd" d="M324 212C333.941 212 342 203.941 342 194C342 184.059 333.941 176 324 176C314.059 176 306 184.059 306 194C306 203.941 314.059 212 324 212Z" fill="#6C63FF"/>
<path d="M315.923 193.856L320.55 198.699L331.988 187.204" stroke="white" stroke-width="2"/>
<path opacity="0.6" fill-rule="evenodd" clip-rule="evenodd" d="M334 129H319.1C318.4 129 317.8 129.3 317.4 129.9L312 138L317.4 146.1C317.8 146.6 318.4 147 319.1 147H334C335.1 147 336 146.1 336 145V131C336 129.9 335.1 129 334 129ZM331 141.6L329.6 143L326 139.4L322.4 143L321 141.6L324.6 138L321 134.4L322.4 133L326 136.6L329.6 133L331 134.4L327.4 138L331 141.6Z" fill="#37474F"/>
<path fill-rule="evenodd" clip-rule="evenodd" d="M48 207C49.1046 207 50 206.105 50 205C50 203.895 49.1046 203 48 203C46.8954 203 46 203.895 46 205C46 206.105 46.8954 207 48 207Z" fill="#37474F"/>
<rect x="320" y="29" width="9" height="3" fill="#37474F"/>
<path fill-rule="evenodd" clip-rule="evenodd" d="M322.698 92.9518H325.987L325.871 97.4825L323.052 102.237L320.817 100.812L322.578 97.5605L322.698 92.9518Z" fill="#37474F"/>
<path fill-rule="evenodd" clip-rule="evenodd" d="M50.9707 42H47.5078L47.6335 19.4941L40.6741 21.9883V19.0636L50.9707 15.4062V42Z" fill="#37474F"/>
<path fill-rule="evenodd" clip-rule="evenodd" d="M153.342 42H136.074V39.293L144.459 29.3105C145.959 27.6348 146.976 26.3047 147.509 25.3203C148.042 24.3359 148.309 23.3281 148.309 22.2969C148.309 21.0195 147.937 19.9443 147.192 19.0713C146.448 18.1982 145.461 17.7617 144.231 17.7617C142.461 17.7617 141.157 18.2158 140.319 19.124C139.482 20.0322 139.07 21.6919 139.07 23.3325H135.705V22.8418C135.647 20.6387 136.379 18.7871 137.902 17.2871C139.426 15.7871 141.535 15.0371 144.231 15.0371C146.527 15.0371 148.358 15.708 149.724 17.0498C151.089 18.3916 151.772 20.0996 151.772 22.1738C151.772 23.5684 151.358 24.9658 150.532 26.3662C149.706 27.7666 148.549 29.2695 147.061 30.875L140.328 39.2051L140.363 39.293H153.342V42Z" fill="#37474F"/>
<path fill-rule="evenodd" clip-rule="evenodd" d="M236.82 26.6035H239.844C241.379 26.6035 242.466 26.2197 243.105 25.4521C243.743 24.6846 244.063 23.6152 244.063 22.2441C244.063 20.7793 243.699 19.666 242.973 18.9043C242.246 18.1426 241.174 17.7617 239.756 17.7617C238.408 17.7617 237.327 18.1572 236.513 18.9482C235.698 19.7393 235.291 20.791 235.291 22.1035H231.969L231.934 21.998C231.875 20.0644 232.575 18.4209 234.034 17.0674C235.493 15.7139 237.4 15.0371 239.756 15.0371C242.123 15.0371 244.01 15.667 245.416 16.9268C246.822 18.1865 247.525 19.9824 247.525 22.3145C247.525 23.3691 247.206 24.4209 246.567 25.4697C245.929 26.5186 244.992 27.9479 243.715 28.4987C245.25 29.0026 246.337 29.7936 246.975 30.8717C247.614 31.9498 247.933 33.1569 247.933 34.4928C247.933 36.8248 247.169 38.6588 245.639 39.9948C244.11 41.3307 242.156 41.9987 239.777 41.9987C237.445 41.9987 235.514 41.3688 233.985 40.109C232.456 38.8492 231.773 37.0358 231.832 34.8795H235.137C235.137 36.2272 235.55 37.2994 236.376 38.0963C237.202 38.8932 238.336 39.2916 239.777 39.2916C241.242 39.2916 242.39 38.8932 243.222 38.0963C244.054 37.2994 244.471 36.1217 244.471 34.5631C244.471 32.9811 244.101 31.8151 243.363 31.0651C242.625 30.3151 241.459 29.9401 239.865 29.9401H236.842L236.82 26.6035Z" fill="#37474F"/>
<path fill-rule="evenodd" clip-rule="evenodd" d="M137.465 83.8359L138.625 70.4062H152.367V73.4824H141.645L141.128 80.6221C141.667 80.2236 142.784 79.9424 143.446 79.6787C144.108 79.415 144.913 79.7021 145.78 79.6787C147.317 79.7021 149.693 80.3135 151.046 81.8721C152.4 83.4307 153.334 85.207 153.334 87.8438C153.334 90.4102 152.681 92.7024 151.304 94.261C149.927 95.8196 147.885 97.3691 145.248 97.3691C143.08 97.3691 140.409 96.5557 138.968 95.3721C137.526 94.1885 136.701 92.6699 136.76 90.373L136.795 90.2676H139.924C139.924 91.6621 140.325 92.7432 141.128 93.5107C141.931 94.2783 143.971 94.6621 145.248 94.6621C146.713 94.6621 148.205 93.1741 149.014 92.1428C149.823 91.1116 149.871 89.6719 149.871 87.8789C149.871 86.2383 149.351 85.2266 148.658 84.3071C147.965 83.3877 146.689 82.4692 145.248 82.4692C143.889 82.4692 142.904 82.459 142.295 82.8691C141.686 83.2793 140.615 83.4634 140.333 84.3071L137.465 83.8359Z" fill="#37474F"/>
<path fill-rule="evenodd" clip-rule="evenodd" d="M53.9082 88.3867H57.4414V91.0938H53.9082V97H50.4629V91.0938H38.9668V89.1426L50.252 71.4062H53.9082V88.3867ZM42.6582 88.3867H50.4629V76.3809L50.3574 76.3633L50.0234 77.2422L42.6582 88.3867Z" fill="#37474F"/>
<path fill-rule="evenodd" clip-rule="evenodd" d="M244.68 70.5437V73.4119C244.68 73.4119 242.595 73.2212 241.759 73.4119C240.644 73.6665 238.563 74.4941 237.444 75.959C236.325 77.4238 235.766 79.334 235.766 81.6895V82.0938C236.516 81.4375 237.374 80.9248 238.341 80.5557C239.308 80.1865 240.348 80.002 241.461 80.002C243.746 80.002 245.568 80.793 246.928 82.375C248.287 83.957 248.967 85.9609 248.967 88.3867C248.967 91.0352 248.243 93.1943 246.796 94.8643C245.349 96.5342 243.418 97.3691 241.004 97.3691C238.496 97.3691 236.422 96.4609 234.781 94.6445C233.141 92.8281 232.32 90.2676 232.32 86.9629V82.0762C232.32 78.7949 233.234 76.1348 235.062 74.0957C236.891 72.0566 239.528 71.2893 240.644 70.9165C241.759 70.5437 244.68 70.5437 244.68 70.5437ZM237.664 83.3066C236.832 83.7871 236.199 84.4258 235.766 85.2227V87.2969C235.766 89.6524 236.264 91.4687 237.26 92.7461C238.256 94.0234 239.504 94.6621 241.004 94.6621C242.422 94.6621 243.526 94.0615 244.317 92.8604C245.108 91.6592 245.504 90.168 245.504 88.3867C245.504 86.6992 245.079 85.3106 244.229 84.2207C243.38 83.1309 242.199 82.5859 240.688 82.5859C239.504 82.5859 238.496 82.8262 237.664 83.3066Z" fill="#37474F"/>
<path fill-rule="evenodd" clip-rule="evenodd" d="M56.668 128.131L46.3521 152.073H42.8242L53.2754 128.131H39.3535V125.406H56.668V128.131Z" fill="#37474F"/>
<path fill-rule="evenodd" clip-rule="evenodd" d="M151.754 133.086C151.754 134.422 151.379 135.591 150.629 136.593C149.879 137.595 148.865 138.342 147.588 138.834C149.064 139.35 150.245 140.158 151.13 141.26C152.015 142.361 152.457 143.633 152.457 145.074C152.457 147.441 151.687 149.249 150.146 150.497C148.604 151.745 146.604 152.369 144.143 152.369C141.635 152.369 139.616 151.745 138.087 150.497C136.558 149.249 135.793 147.441 135.793 145.074C135.793 143.633 136.227 142.361 137.094 141.26C137.961 140.158 139.133 139.35 140.609 138.834C139.332 138.342 138.33 137.595 137.604 136.593C136.877 135.591 136.514 134.422 136.514 133.086C136.514 130.836 137.208 129.099 138.597 127.874C139.985 126.649 141.822 126.037 144.107 126.037C146.357 126.037 148.194 126.649 149.618 127.874C151.042 129.099 151.754 130.836 151.754 133.086ZM149.012 145.004C149.012 143.598 148.549 142.443 147.623 141.541C146.697 140.639 145.525 140.188 144.107 140.188C142.666 140.188 141.497 140.639 140.601 141.541C139.704 142.443 139.256 143.598 139.256 145.004C139.256 146.457 139.701 147.597 140.592 148.423C141.482 149.249 142.666 149.662 144.143 149.662C145.584 149.662 146.756 149.246 147.658 148.414C148.561 147.582 149.012 146.445 149.012 145.004ZM147.104 130.01C146.313 129.178 145.314 128.762 144.107 128.762C142.877 128.762 141.881 129.163 141.119 129.966C140.357 130.769 139.977 131.832 139.977 133.156C139.977 134.457 140.36 135.5 141.128 136.285C141.896 137.07 142.9 137.463 144.143 137.463C145.361 137.463 146.357 137.07 147.131 136.285C147.904 135.5 148.291 134.457 148.291 133.156C148.291 131.891 147.896 130.842 147.104 130.01Z" fill="#37474F"/>
<path fill-rule="evenodd" clip-rule="evenodd" d="M242.401 147.231C243.415 145.954 244.555 144.57 244.555 142.051V140.891C243.98 141.723 243.263 142.353 242.401 142.78C241.54 143.208 240.582 143.422 239.527 143.422C237.055 143.422 235.092 142.657 233.639 141.128C232.186 139.599 231.459 137.492 231.459 134.809C231.459 132.242 231.832 129.782 233.373 128.141C234.914 126.5 236.407 125.037 239.387 125.037C243.306 125.037 244.764 126.763 246.305 128.433C247.846 130.103 248.018 132.67 248.018 135.916V142.016C247.752 144.845 246.225 147.253 244.555 149.034C242.885 150.816 239.387 151.907 239.127 151.907C238.225 151.907 235.44 151.907 235.44 151.907V149.034C235.44 149.034 240.049 149.034 242.401 147.231ZM242.718 139.889C243.567 139.338 244.18 138.635 244.555 137.779V135.564C244.555 133.326 244.124 131.633 243.263 130.484C242.401 129.336 241.18 128.259 239.527 128.259C238.262 128.259 237.148 129.327 236.258 130.458C235.367 131.589 234.922 133.039 234.922 134.809C234.922 136.566 235.335 137.99 236.161 139.08C236.987 140.17 238.109 140.715 239.527 140.715C240.805 140.715 241.868 140.439 242.718 139.889Z" fill="#37474F"/>
<path fill-rule="evenodd" clip-rule="evenodd" d="M152.281 197.244C152.281 200.514 151.558 203.019 150.11 204.759C148.663 206.499 146.68 207.369 144.16 207.369C141.641 207.369 139.648 206.496 138.184 204.75C136.719 203.004 135.986 200.502 135.986 197.244V191.18C135.986 187.922 136.716 185.417 138.175 183.665C139.634 181.913 141.617 181.037 144.125 181.037C146.645 181.037 148.634 181.913 150.093 183.665C151.552 185.417 152.281 187.922 152.281 191.18V197.244ZM148.818 190.441C148.818 188.227 148.417 186.56 147.614 185.44C146.812 184.321 145.648 183.762 144.125 183.762C142.602 183.762 141.441 184.321 140.645 185.44C139.848 186.56 139.449 188.227 139.449 190.441V197.947C139.449 200.162 139.854 201.835 140.662 202.966C141.471 204.097 142.637 204.662 144.16 204.662C145.684 204.662 146.841 204.1 147.632 202.975C148.423 201.85 148.818 200.174 148.818 197.947V190.441Z" fill="#37474F"/>
</g>
<defs>
<filter id="filter0_dd" x="-2" y="-2" width="364" height="230" filterUnits="userSpaceOnUse" color-interpolation-filters="sRGB">
<feFlood flood-opacity="0" result="BackgroundImageFix"/>
<feColorMatrix in="SourceAlpha" type="matrix" values="0 0 0 0 0 0 0 0 0 0 0 0 0 0 0 0 0 0 127 0"/>
<feOffset/>
<feGaussianBlur stdDeviation="1"/>
<feColorMatrix type="matrix" values="0 0 0 0 0 0 0 0 0 0 0 0 0 0 0 0 0 0 0.12 0"/>
<feBlend mode="normal" in2="BackgroundImageFix" result="effect1_dropShadow"/>
<feColorMatrix in="SourceAlpha" type="matrix" values="0 0 0 0 0 0 0 0 0 0 0 0 0 0 0 0 0 0 127 0"/>
<feOffset dy="2"/>
<feGaussianBlur stdDeviation="1"/>
<feColorMatrix type="matrix" values="0 0 0 0 0 0 0 0 0 0 0 0 0 0 0 0 0 0 0.24 0"/>
<feBlend mode="normal" in2="effect1_dropShadow" result="effect2_dropShadow"/>
<feBlend mode="normal" in="SourceGraphic" in2="effect2_dropShadow" result="shape"/>
</filter>
<filter id="filter1_ddi" x="-2" y="-1" width="364" height="230" filterUnits="userSpaceOnUse" color-interpolation-filters="sRGB">
<feFlood flood-opacity="0" result="BackgroundImageFix"/>
<feColorMatrix in="SourceAlpha" type="matrix" values="0 0 0 0 0 0 0 0 0 0 0 0 0 0 0 0 0 0 127 0"/>
<feOffset/>
<feGaussianBlur stdDeviation="1"/>
<feColorMatrix type="matrix" values="0 0 0 0 0 0 0 0 0 0 0 0 0 0 0 0 0 0 0.12 0"/>
<feBlend mode="normal" in2="BackgroundImageFix" result="effect1_dropShadow"/>
<feColorMatrix in="SourceAlpha" type="matrix" values="0 0 0 0 0 0 0 0 0 0 0 0 0 0 0 0 0 0 127 0"/>
<feOffset dy="2"/>
<feGaussianBlur stdDeviation="1"/>
<feColorMatrix type="matrix" values="0 0 0 0 0 0 0 0 0 0 0 0 0 0 0 0 0 0 0.24 0"/>
<feBlend mode="normal" in2="effect1_dropShadow" result="effect2_dropShadow"/>
<feBlend mode="normal" in="SourceGraphic" in2="effect2_dropShadow" result="shape"/>
<feColorMatrix in="SourceAlpha" type="matrix" values="0 0 0 0 0 0 0 0 0 0 0 0 0 0 0 0 0 0 127 0" result="hardAlpha"/>
<feOffset dy="0.5"/>
<feComposite in2="hardAlpha" operator="arithmetic" k2="-1" k3="1"/>
<feColorMatrix type="matrix" values="0 0 0 0 1 0 0 0 0 1 0 0 0 0 1 0 0 0 0.8 0"/>
<feBlend mode="normal" in2="shape" result="effect3_innerShadow"/>
</filter>
<clipPath id="clip0">
<rect width="360" height="225" fill="white"/>
</clipPath>
</defs>
</svg>
